<?xml version="1.0" standalone="no"?>
<!DOCTYPE svg PUBLIC "-//W3C//DTD SVG 20010904//EN"
 "http://www.w3.org/TR/2001/REC-SVG-20010904/DTD/svg10.dtd">
<svg version="1.0" xmlns="http://www.w3.org/2000/svg"
 width="192.000000pt" height="192.000000pt" viewBox="0 0 192.000000 192.000000"
 preserveAspectRatio="xMidYMid meet">
<metadata>
Created by potrace 1.11, written by Peter Selinger 2001-2013
</metadata>
<g transform="translate(0.000000,192.000000) scale(0.100000,-0.100000)"
fill="#000000" stroke="none">
<path d="M810 1800 c-178 -38 -291 -105 -478 -285 -113 -108 -224 -285 -302
-480 l-30 -75 30 -76 c17 -41 42 -98 56 -127 l26 -51 25 84 c91 317 297 596
521 705 112 55 161 67 283 71 127 4 205 -11 309 -62 65 -31 164 -100 202 -140
l27 -29 -18 -50 c-10 -27 -29 -74 -42 -104 l-24 -54 -60 52 c-234 199 -529
195 -761 -12 -135 -120 -279 -394 -308 -587 -3 -19 -8 -47 -11 -62 -6 -30 31
-80 123 -166 246 -229 541 -302 833 -206 280 92 543 377 684 742 l28 72 -37
93 c-20 50 -45 107 -55 126 l-18 35 -33 -105 c-98 -319 -301 -584 -527 -691
-117 -55 -173 -67 -306 -64 -108 2 -131 6 -203 33 -90 34 -173 83 -250 150
l-52 44 20 52 c11 29 31 76 44 105 l24 53 53 -44 c117 -100 232 -148 362 -152
327 -10 604 275 710 730 23 102 22 105 -56 189 -225 241 -513 345 -789 286z
m322 -758 c35 -16 77 -42 93 -56 l30 -26 -30 -26 c-121 -103 -327 -124 -454
-46 -61 36 -101 65 -101 72 0 15 96 74 158 97 96 34 213 29 304 -15z"/>
</g>
</svg>
